HIERARCHY
ROOT hip
{
  OFFSET 0 0 0
  CHANNELS 6 Xposition Yposition Zposition Zrotation Yrotation Xrotation
  JOINT abdomen
  {
    OFFSET 0 20.6881 -0.73152
    CHANNELS 3 Zrotation Xrotation Yrotation
    JOINT chest
    {
      OFFSET 0 11.7043 -0.48768
      CHANNELS 3 Zrotation Xrotation Yrotation
      JOINT neck
      {
        OFFSET 0 22.1894 -2.19456
        CHANNELS 3 Zrotation Xrotation Yrotation
        JOINT head
        {
          OFFSET -0.24384 7.07133 1.2192
          CHANNELS 3 Zrotation Xrotation Yrotation
          JOINT leftEye
          {
            OFFSET 4.14528 8.04674 8.04672
            CHANNELS 3 Zrotation Xrotation Yrotation
            End Site
            {
              OFFSET 1 0 0
            }
          }
          JOINT rightEye
          {
            OFFSET -3.6576 8.04674 8.04672
            CHANNELS 3 Zrotation Xrotation Yrotation
            End Site
            {
              OFFSET 1 0 0
            }
          }
        }
      }
      JOINT rCollar
      {
        OFFSET -2.68224 19.2634 -4.8768
        CHANNELS 3 Zrotation Xrotation Yrotation
        JOINT rShldr
        {
          OFFSET -8.77824 -1.95073 1.46304
          CHANNELS 3 Zrotation Xrotation Yrotation
          JOINT rForeArm
          {
            OFFSET -28.1742 -1.7115 0.48768
            CHANNELS 3 Zrotation Xrotation Yrotation
            JOINT rHand
            {
              OFFSET -22.5879 0.773209 7.07136
              CHANNELS 3 Zrotation Xrotation Yrotation
              JOINT rThumb1
              {
                OFFSET -1.2192 -0.487915 3.41376
                CHANNELS 3 Zrotation Xrotation Yrotation
                JOINT rThumb2
                {
                  OFFSET -3.37035 -0.52449 3.41376
                  CHANNELS 3 Zrotation Xrotation Yrotation
                  End Site
                  {
                    OFFSET -1.78271 -1.18214 1.43049
                  }
                }
              }
              JOINT rIndex1
              {
                OFFSET -7.75947 0.938293 5.60832
                CHANNELS 3 Zrotation Xrotation Yrotation
                JOINT rIndex2
                {
                  OFFSET -2.54057 -0.884171 1.56538
                  CHANNELS 3 Zrotation Xrotation Yrotation
                  End Site
                  {
                    OFFSET -1.62519 -0.234802 1.16502
                  }
                }
              }
              JOINT rMid1
              {
                OFFSET -8.24714 1.18213 3.41376
                CHANNELS 3 Zrotation Xrotation Yrotation
                JOINT rMid2
                {
                  OFFSET -3.10165 -0.590103 1.0647
                  CHANNELS 3 Zrotation Xrotation Yrotation
                  End Site
                  {
                    OFFSET -2.48547 -0.328903 0.83742
                  }
                }
              }
              JOINT rRing1
              {
                OFFSET -8.82822 0.546677 1.51678
                CHANNELS 3 Zrotation Xrotation Yrotation
                JOINT rRing2
                {
                  OFFSET -2.60934 -0.819778 -0.0198488
                  CHANNELS 3 Zrotation Xrotation Yrotation
                  End Site
                  {
                    OFFSET -2.33842 -0.294052 0.168128
                  }
                }
              }
              JOINT rPinky1
              {
                OFFSET -8.27202 -0.0477905 -0.4584
                CHANNELS 3 Zrotation Xrotation Yrotation
                JOINT rPinky2
                {
                  OFFSET -1.82734 -0.647385 -0.700984
                  CHANNELS 3 Zrotation Xrotation Yrotation
                  End Site
                  {
                    OFFSET -1.69225 -0.51767 -0.607171
                  }
                }
              }
            }
          }
        }
      }
      JOINT lCollar
      {
        OFFSET 2.68224 19.2634 -4.8768
        CHANNELS 3 Zrotation Xrotation Yrotation
        JOINT lShldr
        {
          OFFSET 8.77824 -1.95073 1.46304
          CHANNELS 3 Zrotation Xrotation Yrotation
          JOINT lForeArm
          {
            OFFSET 28.1742 -1.7115 0.48768
            CHANNELS 3 Zrotation Xrotation Yrotation
            JOINT lHand
            {
              OFFSET 22.5879 0.773209 7.07136
              CHANNELS 3 Zrotation Xrotation Yrotation
              JOINT lThumb1
              {
                OFFSET 1.2192 -0.487915 3.41376
                CHANNELS 3 Zrotation Xrotation Yrotation
                JOINT lThumb2
                {
                  OFFSET 3.37035 -0.52449 3.41376
                  CHANNELS 3 Zrotation Xrotation Yrotation
                  End Site
                  {
                    OFFSET 1.78271 -1.18214 1.43049
                  }
                }
              }
              JOINT lIndex1
              {
                OFFSET 7.75947 0.938293 5.60832
                CHANNELS 3 Zrotation Xrotation Yrotation
                JOINT lIndex2
                {
                  OFFSET 2.54057 -0.884171 1.56538
                  CHANNELS 3 Zrotation Xrotation Yrotation
                  End Site
                  {
                    OFFSET 1.62519 -0.234802 1.16502
                  }
                }
              }
              JOINT lMid1
              {
                OFFSET 8.24714 1.18213 3.41376
                CHANNELS 3 Zrotation Xrotation Yrotation
                JOINT lMid2
                {
                  OFFSET 3.10165 -0.590103 1.0647
                  CHANNELS 3 Zrotation Xrotation Yrotation
                  End Site
                  {
                    OFFSET 2.48547 -0.328903 0.83742
                  }
                }
              }
              JOINT lRing1
              {
                OFFSET 8.82822 0.546677 1.51678
                CHANNELS 3 Zrotation Xrotation Yrotation
                JOINT lRing2
                {
                  OFFSET 2.60934 -0.819778 -0.0198488
                  CHANNELS 3 Zrotation Xrotation Yrotation
                  End Site
                  {
                    OFFSET 2.33842 -0.294052 0.168128
                  }
                }
              }
              JOINT lPinky1
              {
                OFFSET 8.27202 -0.0477905 -0.4584
                CHANNELS 3 Zrotation Xrotation Yrotation
                JOINT lPinky2
                {
                  OFFSET 1.82734 -0.647385 -0.700984
                  CHANNELS 3 Zrotation Xrotation Yrotation
                  End Site
                  {
                    OFFSET 1.69225 -0.51767 -0.607171
                  }
                }
              }
            }
          }
        }
      }
    }
  }
  JOINT rButtock
  {
    OFFSET -8.77824 4.35084 1.2192
    CHANNELS 3 Zrotation Xrotation Yrotation
    JOINT rThigh
    {
      OFFSET 0 -1.70687 -2.19456
      CHANNELS 3 Zrotation Xrotation Yrotation
      JOINT rShin
      {
        OFFSET 0 -36.8199 0.73152
        CHANNELS 3 Zrotation Xrotation Yrotation
        JOINT rFoot
        {
          OFFSET 0.73152 -45.1104 -5.12064
          CHANNELS 3 Zrotation Xrotation Yrotation
          End Site
          {
            OFFSET -1.1221 -3.69964 12.103
          }
        }
      }
    }
  }
  JOINT lButtock
  {
    OFFSET 8.77824 4.35084 1.2192
    CHANNELS 3 Zrotation Xrotation Yrotation
    JOINT lThigh
    {
      OFFSET 0 -1.70687 -2.19456
      CHANNELS 3 Zrotation Xrotation Yrotation
      JOINT lShin
      {
        OFFSET 0 -36.8199 0.73152
        CHANNELS 3 Zrotation Xrotation Yrotation
        JOINT lFoot
        {
          OFFSET -0.73152 -45.1104 -5.12064
          CHANNELS 3 Zrotation Xrotation Yrotation
          End Site
          {
            OFFSET 1.1221 -3.69964 12.103
          }
        }
      }
    }
  }
}
MOTION
Frames:	6
Frame Time:	0.00833333
32.1263 65.2728 4.58672 0.0 0.0 0.0 -1.5449 -0.00284744 -0.0420506 -0.425415 0.00110729 -0.0736738 4.19379e-14 1.59028e-15 -5.2181e-16 1.26026e-13 9.54166e-15 -1.4971e-15 -0.0 0.0 0.0 -0.0 0.0 0.0 2.1071e-14 7.84268e-17 -4.96962e-17 4.41381e-13 1.36043e-15 -3.18055e-15 7.58488e-12 -2.20989e-12 -1.68569e-13 8.67903e-11 2.57128e-12 -9.44625e-13 2.04731e-10 7.88904e-13 -2.41404e-12 3.53543e-10 1.36446e-12 -4.1713e-12 2.04732e-10 7.87585e-13 -2.42994e-12 7.73091 5.47488 0.417314 2.04731e-10 7.88678e-13 -2.41404e-12 2.90554 0.965183 0.102902 2.04729e-10 7.88678e-13 -2.41245e-12 10.2786 0.731801 0.0259123 2.04722e-10 7.92356e-13 -2.4045e-12 2.22167 -0.733487 -0.20892 2.0874e-14 7.86209e-17 -3.47873e-16 4.39497e-13 1.36043e-15 -4.57205e-15 7.58383e-12 2.32002e-12 -1.7175e-13 8.67942e-11 -1.97512e-12 -9.1918e-13 2.04738e-10 7.5404e-13 -2.39496e-12 3.53593e-10 1.30085e-12 -4.16017e-12 2.04735e-10 7.52201e-13 -2.38542e-12 -7.73091 5.47488 -0.417314 2.04739e-10 7.52996e-13 -2.4045e-12 -2.90554 0.965183 -0.102902 2.04734e-10 7.5399e-13 -2.40211e-12 -10.2786 0.731801 -0.0259123 2.04746e-10 7.58562e-13 -2.41404e-12 -2.22167 -0.733487 0.20892 -2.03217e-16 0.0 -3.88251e-19 -0.632141 -1.92333 -0.00657812 -0.00944734 -2.07853 -0.0781316 -0.540344 3.99725 0.144478 2.03217e-16 0.0 3.88251e-19 -1.71484 -6.549 0.158558 -0.00226848 6.3005 -0.0690514 0.55993 0.244018 -0.0686984
27.2092 62.7803 -1.95433 -104.989 -86.4098 108.369 -1.62535 3.01059 -0.555991 0.284205 -0.452563 -0.241376 2.21964 -0.454502 0.838651 -1.5354 -6.72356 0.596634 -0.0 0.0 0.0 -0.0 0.0 0.0 3.59816e-14 -5.18193e-13 -1.08178e-14 11.7151 3.62569 18.6372 -10.137 -6.99855 12.3922 0.164193 9.0094 1.21039 1.48357e-10 -5.79746e-12 -3.18288e-10 2.47589e-10 -5.52301e-12 -5.48004e-10 1.48359e-10 -5.79793e-12 -3.18302e-10 7.73091 5.47488 0.417314 1.48356e-10 -5.79598e-12 -3.18289e-10 2.90554 0.965183 0.102902 1.48356e-10 -5.79679e-12 -3.18287e-10 10.2786 0.731801 0.0259123 1.48349e-10 -5.79517e-12 -3.1828e-10 2.22167 -0.733487 -0.20892 3.58239e-14 -5.18193e-13 -1.10888e-14 -10.1745 0.0449664 -17.8645 9.32337 -6.18582 -11.8354 -0.0826704 6.38528 -0.877391 8.31359e-11 -1.8097e-10 3.32665e-10 1.502e-10 -3.11033e-10 5.74637e-10 8.31325e-11 -1.80971e-10 3.32673e-10 -7.73091 5.47488 -0.417314 8.31367e-11 -1.80972e-10 3.32658e-10 -2.90554 0.965183 -0.102902 8.31331e-11 -1.80971e-10 3.32658e-10 -10.2786 0.731801 -0.0259123 8.31445e-11 -1.80968e-10 3.32648e-10 -2.22167 -0.733487 0.20892 -2.03217e-16 0.0 -3.88251e-19 -4.74241 -13.719 -4.41355 0.245474 18.4166 0.244536 -0.267627 -4.4006 -1.3654 2.03217e-16 0.0 3.88251e-19 5.54935 -17.3878 7.5539 -0.070339 25.0169 -0.349268 -0.907676 -7.51285 -3.9012
27.2134 62.7793 -1.96074 -105.236 -86.3607 108.619 -1.65097 6.19568 -1.10506 1.03138 -0.931783 -0.419085 4.58061 -0.936443 1.72628 -3.00321 -13.8268 1.25668 -0.0 0.0 0.0 -0.0 0.0 0.0 5.13521e-14 -1.068e-12 -2.32236e-14 21.721 6.17254 38.5266 -17.5933 -13.2946 26.0467 -0.0966352 18.524 2.59418 8.00989e-11 -6.23682e-12 -6.36346e-10 1.21046e-10 -1.80755e-12 -1.09534e-09 8.01024e-11 -6.23642e-12 -6.36358e-10 7.73091 5.47488 0.417314 8.00979e-11 -6.23344e-12 -6.36348e-10 2.90554 0.965183 0.102902 8.00996e-11 -6.23515e-12 -6.36345e-10 10.2786 0.731801 0.0259123 8.00927e-11 -6.2358e-12 -6.3634e-10 2.22167 -0.733487 -0.20892 5.12366e-14 -1.068e-12 -2.34659e-14 -20.9044 0.074427 -36.7468 16.4351 -11.8407 -24.7657 0.0477493 13.1311 -1.84199 -4.17871e-11 -3.65223e-10 6.7854e-10 -5.87247e-11 -6.27663e-10 1.1721e-09 -4.1791e-11 -3.65223e-10 6.78547e-10 -7.73091 5.47488 -0.417314 -4.17868e-11 -3.65225e-10 6.78535e-10 -2.90554 0.965183 -0.102902 -4.17891e-11 -3.65225e-10 6.78534e-10 -10.2786 0.731801 -0.0259123 -4.17786e-11 -3.65222e-10 6.78526e-10 -2.22167 -0.733487 0.20892 -2.03217e-16 0.0 -3.88251e-19 -11.254 -25.9372 -9.8062 0.199934 40.0817 0.731831 -0.473106 -13.259 -3.0408 2.03217e-16 0.0 3.88251e-19 16.6095 -28.1064 16.6721 0.136407 44.8014 -0.815503 -3.62151 -15.5994 -8.18138
27.2191 62.7763 -1.97992 -104.78 -86.2632 108.187 -1.62233 9.03441 -1.60144 1.69548 -1.35985 -0.576921 6.69882 -1.36234 2.51659 -4.16288 -20.1616 1.89367 -0.0 0.0 0.0 -0.0 0.0 0.0 6.5803e-14 -1.55474e-12 -3.23541e-14 29.2784 6.42228 56.3317 -21.7121 -17.0371 38.896 -0.76693 26.9769 4.02493 3.56076e-11 -1.89702e-11 -9.50035e-10 3.56798e-11 -1.92979e-11 -1.63567e-09 3.56124e-11 -1.8969e-11 -9.50046e-10 7.73091 5.47488 0.417314 3.56064e-11 -1.89653e-11 -9.50038e-10 2.90554 0.965183 0.102902 3.56096e-11 -1.89677e-11 -9.50035e-10 10.2786 0.731801 0.0259123 3.56026e-11 -1.89702e-11 -9.50031e-10 2.22167 -0.733487 -0.20892 6.57238e-14 -1.55474e-12 -3.25708e-14 -30.4529 0.0841199 -53.5936 20.6249 -15.3756 -36.8166 0.367627 19.1373 -2.76898 -1.60068e-10 -5.44419e-10 1.00278e-09 -2.56585e-10 -9.35701e-10 1.73223e-09 -1.60072e-10 -5.44418e-10 1.00279e-09 -7.73091 5.47488 -0.417314 -1.60068e-10 -5.44421e-10 1.00278e-09 -2.90554 0.965183 -0.102902 -1.60069e-10 -5.44422e-10 1.00278e-09 -10.2786 0.731801 -0.0259123 -1.60059e-10 -5.4442e-10 1.00277e-09 -2.22167 -0.733487 0.20892 -2.03217e-16 0.0 -3.88251e-19 -19.4764 -36.3379 -16.0257 -0.459642 59.3968 1.67414 -1.12178 -21.1354 -4.6884 2.03217e-16 0.0 3.88251e-19 29.9763 -36.3371 26.811 0.922156 62.4398 -1.75571 -7.15101 -22.592 -12.4332
27.2169 62.7745 -1.9953 -104.228 -86.1871 107.661 -1.57486 11.0101 -1.94937 2.15753 -1.66008 -0.684944 8.18164 -1.64924 3.06297 -4.87443 -24.5841 2.37424 -0.0 0.0 0.0 -0.0 0.0 0.0 7.79549e-14 -1.88381e-12 -3.32964e-14 34.3007 5.19459 68.5938 -23.5067 -18.2031 48.0849 -1.53301 32.8242 5.20138 5.05328e-11 -6.24387e-11 -1.2528e-09 5.32556e-11 -8.9803e-11 -2.15847e-09 5.05386e-11 -6.24367e-11 -1.25281e-09 7.73091 5.47488 0.417314 5.05314e-11 -6.24331e-11 -1.25281e-09 2.90554 0.965183 0.102902 5.05355e-11 -6.24359e-11 -1.2528e-09 10.2786 0.731801 0.0259123 5.05281e-11 -6.24391e-11 -1.2528e-09 2.22167 -0.733487 -0.20892 7.78974e-14 -1.88381e-12 -3.34952e-14 -37.0832 0.0828288 -65.3513 22.5892 -16.6683 -45.4133 0.716449 23.3119 -3.47202 -2.61742e-10 -7.10975e-10 1.27295e-09 -4.26782e-10 -1.22226e-09 2.19906e-09 -2.61747e-10 -7.10973e-10 1.27296e-09 -7.73091 5.47488 -0.417314 -2.61743e-10 -7.10977e-10 1.27295e-09 -2.90554 0.965183 -0.102902 -2.61744e-10 -7.10978e-10 1.27295e-09 -10.2786 0.731801 -0.0259123 -2.61734e-10 -7.10976e-10 1.27294e-09 -2.22167 -0.733487 0.20892 -2.03217e-16 0.0 -3.88251e-19 -27.0507 -43.0912 -21.7187 -2.22374 72.8401 3.57891 -1.85803 -26.6186 -5.95411 2.03217e-16 0.0 3.88251e-19 41.507 -40.8826 35.3485 2.79817 74.7158 -3.69915 -10.3196 -27.2594 -15.7874
27.2163 62.7709 -1.99403 -104.283 -86.1979 107.763 -1.5513 11.7793 -2.0724 2.33761 -1.78678 -0.721238 8.76499 -1.72644 3.26336 -5.13292 -26.3542 2.54959 -0.0 0.0 0.0 -0.0 0.0 0.0 9.23778e-14 -2.03442e-12 -1.54326e-14 36.3008 4.39155 73.2909 -24.0522 -18.2971 51.6908 -1.90677 35.0531 5.70693 1.80238e-10 -1.79921e-10 -1.70261e-09 2.65128e-10 -2.85447e-10 -2.93732e-09 1.80245e-10 -1.79918e-10 -1.70262e-09 7.73091 5.47488 0.417314 1.80236e-10 -1.79916e-10 -1.70261e-09 2.90554 0.965183 0.102902 1.8024e-10 -1.79919e-10 -1.70261e-09 10.2786 0.731801 0.0259123 1.80232e-10 -1.79921e-10 -1.7026e-09 2.22167 -0.733487 -0.20892 9.23194e-14 -2.03442e-12 -1.56267e-14 -39.6292 0.0997916 -69.9886 23.198 -16.8652 -48.7678 0.883395 24.9367 -3.76262 -3.71649e-10 -9.28705e-10 1.55611e-09 -6.10696e-10 -1.59738e-09 2.68857e-09 -3.71653e-10 -9.28703e-10 1.55612e-09 -7.73091 5.47488 -0.417314 -3.7165e-10 -9.28706e-10 1.55611e-09 -2.90554 0.965183 -0.102902 -3.71653e-10 -9.28707e-10 1.55611e-09 -10.2786 0.731801 -0.0259123 -3.71643e-10 -9.28705e-10 1.5561e-09 -2.22167 -0.733487 0.20892 -2.03217e-16 0.0 -3.88251e-19 -30.5496 -45.5556 -24.3984 -4.10039 78.0792 5.49665 -2.19778 -28.8042 -6.44602 2.03217e-16 0.0 3.88251e-19 46.5215 -42.303 39.026 4.77664 79.4951 -5.69344 -11.7612 -28.9914 -17.2682
